<svg width="1600" height="1000" viewBox="0 0 1600 1000" fill="none" xmlns="http://www.w3.org/2000/svg">
  <defs>
    <linearGradient id="bg" x1="0" y1="0" x2="1600" y2="1000" gradientUnits="userSpaceOnUse">
      <stop stop-color="#F8FAFC"/>
      <stop offset="1" stop-color="#EEF2FF"/>
    </linearGradient>
    <linearGradient id="body" x1="0" y1="0" x2="1" y2="1">
      <stop stop-color="#111827"/>
      <stop offset="1" stop-color="#0B1220"/>
    </linearGradient>
    <filter id="shadow" x="-40" y="-40" width="1680" height="1080" color-interpolation-filters="sRGB">
      <feDropShadow dx="0" dy="18" stdDeviation="20" flood-color="#0B1220" flood-opacity="0.25"/>
    </filter>
  </defs>
  <rect width="1600" height="1000" rx="64" fill="url(#bg)"/>
  <g filter="url(#shadow)">
    <rect x="220" y="190" width="1160" height="620" rx="64" fill="white" stroke="#0B1220" stroke-opacity="0.06"/>
    <text x="280" y="275" fill="#0B1220" font-family="ui-sans-serif, system-ui, -apple-system, Segoe UI, Roboto, Arial" font-weight="800" font-size="34">MotoGolf " MG-100</text>
    <text x="280" y="320" fill="#475569" font-family="ui-sans-serif, system-ui, -apple-system, Segoe UI, Roboto, Arial" font-weight="700" font-size="18">Seminuevo " 2 plazas " 48V</text>

    <g transform="translate(280,370)">
      <rect x="0" y="0" width="1040" height="380" rx="56" fill="#F1F5F9"/>
      <rect x="90" y="130" width="860" height="130" rx="54" fill="url(#body)"/>
      <rect x="340" y="86" width="360" height="70" rx="30" fill="#111827"/>
      <rect x="410" y="50" width="220" height="48" rx="24" fill="#0B1220"/>
      <circle cx="250" cy="276" r="56" fill="#0F172A"/>
      <circle cx="250" cy="276" r="28" fill="#111827"/>
      <circle cx="920" cy="276" r="56" fill="#0F172A"/>
      <circle cx="920" cy="276" r="28" fill="#111827"/>
      <rect x="165" y="80" width="70" height="38" rx="19" fill="#34D399"/>
      <rect x="965" y="80" width="70" height="38" rx="19" fill="#60A5FA"/>
    </g>
  </g>
</svg>
